<svg width="12" height="12" viewBox="0 0 12 12" fill="none" xmlns="http://www.w3.org/2000/svg">
<path d="M9.58594 4.06055C9.83984 4.18945 10.0684 4.34961 10.2715 4.54102C10.4785 4.72852 10.6543 4.93945 10.7988 5.17383C10.9434 5.4043 11.0547 5.6543 11.1328 5.92383C11.2109 6.18945 11.25 6.46484 11.25 6.75H10.5C10.5 6.44141 10.4395 6.15039 10.3184 5.87695C10.2012 5.60352 10.041 5.36523 9.83789 5.16211C9.63477 4.95898 9.39648 4.79883 9.12305 4.68164C8.84961 4.56055 8.55859 4.5 8.25 4.5C7.94141 4.5 7.65039 4.56055 7.37695 4.68164C7.10352 4.79883 6.86523 4.95898 6.66211 5.16211C6.45898 5.36523 6.29688 5.60352 6.17578 5.87695C6.05859 6.15039 6 6.44141 6 6.75C6 7.10547 5.91797 7.44336 5.75391 7.76367C5.59375 8.08398 5.37109 8.34961 5.08594 8.56055C5.33984 8.68945 5.56836 8.84961 5.77148 9.04102C5.97852 9.22852 6.1543 9.43945 6.29883 9.67383C6.44336 9.9043 6.55469 10.1543 6.63281 10.4238C6.71094 10.6895 6.75 10.9648 6.75 11.25H6C6 10.9414 5.93945 10.6504 5.81836 10.377C5.70117 10.1035 5.54102 9.86523 5.33789 9.66211C5.13477 9.45898 4.89648 9.29883 4.62305 9.18164C4.34961 9.06055 4.05859 9 3.75 9C3.44141 9 3.15039 9.06055 2.87695 9.18164C2.60352 9.29883 2.36523 9.45898 2.16211 9.66211C1.95898 9.86523 1.79688 10.1035 1.67578 10.377C1.55859 10.6504 1.5 10.9414 1.5 11.25H0.75C0.75 10.9648 0.789062 10.6895 0.867188 10.4238C0.945312 10.1543 1.05664 9.9043 1.20117 9.67383C1.3457 9.43945 1.51953 9.22852 1.72266 9.04102C1.92969 8.84961 2.16016 8.68945 2.41406 8.56055C2.12891 8.34961 1.9043 8.08398 1.74023 7.76367C1.58008 7.44336 1.5 7.10547 1.5 6.75C1.5 6.44141 1.55859 6.15039 1.67578 5.87695C1.79688 5.60352 1.95898 5.36523 2.16211 5.16211C2.36523 4.95898 2.60352 4.79883 2.87695 4.68164C3.15039 4.56055 3.44141 4.5 3.75 4.5C4.10547 4.5 4.44336 4.58203 4.76367 4.74609C5.08398 4.90625 5.34961 5.12891 5.56055 5.41406C5.70898 5.12109 5.89844 4.85938 6.12891 4.62891C6.35938 4.39844 6.62109 4.20898 6.91406 4.06055C6.62891 3.84961 6.4043 3.58398 6.24023 3.26367C6.08008 2.94336 6 2.60547 6 2.25C6 1.94141 6.05859 1.65039 6.17578 1.37695C6.29688 1.10352 6.45898 0.865234 6.66211 0.662109C6.86523 0.458984 7.10352 0.298828 7.37695 0.181641C7.65039 0.0605469 7.94141 0 8.25 0C8.55859 0 8.84961 0.0605469 9.12305 0.181641C9.39648 0.298828 9.63477 0.458984 9.83789 0.662109C10.041 0.865234 10.2012 1.10352 10.3184 1.37695C10.4395 1.65039 10.5 1.94141 10.5 2.25C10.5 2.60547 10.418 2.94336 10.2539 3.26367C10.0938 3.58398 9.87109 3.84961 9.58594 4.06055ZM3.75 8.25C3.95312 8.25 4.14648 8.21094 4.33008 8.13281C4.51367 8.05078 4.67188 7.94336 4.80469 7.81055C4.94141 7.67383 5.04883 7.51562 5.12695 7.33594C5.20898 7.15234 5.25 6.95703 5.25 6.75C5.25 6.54688 5.20898 6.35352 5.12695 6.16992C5.04883 5.98633 4.94141 5.82812 4.80469 5.69531C4.67188 5.55859 4.51367 5.45117 4.33008 5.37305C4.14648 5.29102 3.95312 5.25 3.75 5.25C3.54297 5.25 3.34766 5.29102 3.16406 5.37305C2.98438 5.45117 2.82617 5.55859 2.68945 5.69531C2.55664 5.82812 2.44922 5.98633 2.36719 6.16992C2.28906 6.35352 2.25 6.54688 2.25 6.75C2.25 6.95703 2.28906 7.15234 2.36719 7.33594C2.44922 7.51562 2.55664 7.67383 2.68945 7.81055C2.82617 7.94336 2.98438 8.05078 3.16406 8.13281C3.34766 8.21094 3.54297 8.25 3.75 8.25ZM6.75 2.25C6.75 2.45703 6.78906 2.65234 6.86719 2.83594C6.94922 3.01563 7.05664 3.17383 7.18945 3.31055C7.32617 3.44336 7.48438 3.55078 7.66406 3.63281C7.84766 3.71094 8.04297 3.75 8.25 3.75C8.45312 3.75 8.64648 3.71094 8.83008 3.63281C9.01367 3.55078 9.17188 3.44336 9.30469 3.31055C9.44141 3.17383 9.54883 3.01563 9.62695 2.83594C9.70898 2.65234 9.75 2.45703 9.75 2.25C9.75 2.04687 9.70898 1.85352 9.62695 1.66992C9.54883 1.48633 9.44141 1.32813 9.30469 1.19531C9.17188 1.05859 9.01367 0.951172 8.83008 0.873047C8.64648 0.791016 8.45312 0.75 8.25 0.75C8.04297 0.75 7.84766 0.791016 7.66406 0.873047C7.48438 0.951172 7.32617 1.05859 7.18945 1.19531C7.05664 1.32813 6.94922 1.48633 6.86719 1.66992C6.78906 1.85352 6.75 2.04687 6.75 2.25Z" fill="#212121"/>
</svg>
